<svg xmlns="http://www.w3.org/2000/svg" viewBox="0 0 512 512">
  <!-- Background -->
  <rect width="512" height="512" rx="96" fill="#1D9E75"/>
  <!-- Screen bezel -->
  <rect x="120" y="88" width="272" height="128" rx="20" fill="rgba(255,255,255,0.18)" stroke="white" stroke-width="14"/>
  <!-- Dollar sign: vertical bar -->
  <rect x="246" y="104" width="20" height="98" rx="6" fill="white"/>
  <!-- Dollar sign: top arc -->
  <path d="M218 138 Q218 108 256 108 Q294 108 294 138 Q294 162 256 162 Q218 162 218 186 Q218 212 256 212 Q294 212 294 186" fill="none" stroke="white" stroke-width="20" stroke-linecap="round"/>
  <!-- Register body -->
  <rect x="88" y="242" width="336" height="114" rx="18" fill="white" opacity="0.9"/>
  <!-- Keypad row 1 -->
  <rect x="112" y="262" width="44" height="32" rx="8" fill="#1D9E75"/>
  <rect x="168" y="262" width="44" height="32" rx="8" fill="#1D9E75"/>
  <rect x="224" y="262" width="44" height="32" rx="8" fill="#1D9E75"/>
  <!-- Keypad row 2 -->
  <rect x="112" y="304" width="44" height="36" rx="8" fill="#0F6E56"/>
  <rect x="168" y="304" width="44" height="36" rx="8" fill="#0F6E56"/>
  <rect x="224" y="304" width="100" height="36" rx="8" fill="#0F6E56"/>
  <!-- Cash drawer -->
  <rect x="88" y="372" width="336" height="52" rx="16" fill="white" opacity="0.65"/>
  <rect x="210" y="385" width="92" height="14" rx="7" fill="rgba(29,158,117,0.35)"/>
</svg>
